Coordinates
version=1
nRows=24
nColumns=19
inDegrees=yes

Units are S.I. units (second, meters, Newtons, ...)
If the header above contains a line with 'inDegrees', this indicates whether rotational values are in degrees (yes) or radians (no).

endheader
time	pelvis_tilt	pelvis_list	pelvis_rotation	pelvis_tx	pelvis_ty	pelvis_tz	hip_flexion_r	hip_adduction_r	hip_rotation_r	knee_angle_r	knee_angle_r_beta	ankle_angle_r	hip_flexion_l	hip_adduction_l	hip_rotation_l	knee_angle_l	knee_angle_l_beta	ankle_angle_l
     14.82000000	    -10.50140506	     -5.20473102	     -0.95781990	      2.15968482	      0.95225699	      0.97650270	     32.90325199	      6.61157960	    -15.03511487	     17.66224826	      0.30826439	     12.93681097	    -12.21990276	     -7.12950963	     -0.89178492	     30.71302902	      0.53604348	    -11.91873043
     14.82666667	    -10.38121162	     -5.39551268	     -0.96477807	      2.16000010	      0.94838081	      0.97666081	     33.14478007	      6.52403587	    -15.84979275	     19.45630288	      0.33957655	     12.66821059	    -11.65523370	     -7.51957609	     -0.90942723	     33.64779266	      0.58726477	    -11.84591592
     14.83333333	     -9.74279009	     -5.75442886	     -1.01459595	      2.16046073	      0.94477460	      0.97674655	     32.78448158	      6.60104058	    -16.55585938	     21.45378698	      0.37443922	     12.38771214	    -11.62614928	     -8.10575727	     -1.22010193	     36.60367002	      0.63885456	    -11.98383893
     14.84000000	     -9.56785188	     -6.00397496	     -0.97208075	      2.16070798	      0.94041359	      0.97671304	     32.98385078	      6.46514359	    -17.17485834	     23.79741332	      0.41534322	     12.03780032	    -10.83771707	     -8.65413542	     -1.40310162	     39.89260909	      0.69625738	    -12.19714472
     14.84666667	     -9.05042060	     -6.35205100	     -1.01227741	      2.16095265	      0.93621934	      0.97676911	     32.78283824	      6.49145245	    -17.55012489	     26.23720639	      0.45792564	     11.74326622	    -10.39614175	     -9.31672428	     -1.76109685	     43.17303937	      0.75351169	    -12.55595955
     14.85333333	     -8.50754852	     -6.71034154	     -1.08596709	      2.16112948	      0.93193601	      0.97687368	     32.53692910	      6.57076671	    -17.69638527	     28.75683967	      0.50190153	     11.63919795	     -9.88982280	    -10.03885607	     -2.20539569	     46.50943637	      0.81174280	    -12.96374955
     14.86000000	     -7.65953719	     -7.13658511	     -1.18820897	      2.16124005	      0.92799323	      0.97705806	     31.91350438	      6.79014003	    -17.65202454	     31.24691964	      0.54536163	     11.79423870	     -9.67857559	    -10.85580460	     -2.73182794	     49.78179467	      0.86885622	    -13.40566189
     14.86666667	     -6.92675629	     -7.54042808	     -1.26036920	      2.16111770	      0.92392223	      0.97734077	     31.39924721	      7.02422791	    -17.47814262	     33.73626927	      0.58880898	     12.24708727	     -9.20089575	    -11.68902802	     -3.13378026	     53.12879644	      0.92727243	    -13.74514546
     14.87333333	     -6.80858393	     -7.81655611	     -1.33172218	      2.16078233	      0.91937290	      0.97763393	     31.52352736	      7.16901654	    -17.12903274	     36.19643980	      0.63174705	     12.96357371	     -7.87164105	    -12.34499009	     -3.17318003	     56.56767146	      0.98729212	    -13.93902790
     14.88000000	     -6.29672622	     -8.12233853	     -1.41561507	      2.16027295	      0.91548876	      0.97805569	     31.13163063	      7.43116535	    -16.70634373	     38.47894565	      0.67158429	     14.02066079	     -6.94170831	    -13.01680360	     -3.22732362	     59.84089957	      1.04442072	    -13.99953812
     14.88666667	     -5.52405548	     -8.43288224	     -1.51487811	      2.15968025	      0.91216797	      0.97852553	     30.35393569	      7.76925073	    -16.21086589	     40.58336074	      0.70831327	     15.40191581	     -6.27803220	    -13.64131857	     -3.23631617	     62.92493621	      1.09824732	    -13.87039771
     14.89333333	     -5.49642056	     -8.51347299	     -1.50242632	      2.15863123	      0.90846883	      0.97894455	     30.30132324	      7.84952664	    -15.75887090	     42.50510384	      0.74185401	     16.84532774	     -4.50516144	    -13.96480474	     -2.73968740	     66.12052353	      1.15402084	    -13.56059322
     14.90000000	     -5.22864772	     -8.54124758	     -1.50586947	      2.15750916	      0.90541448	      0.97937420	     29.85306814	      7.94514182	    -15.22944928	     44.19862073	      0.77141146	     18.49144764	     -2.98140470	    -14.14056745	     -2.20272456	     69.07014627	      1.20550147	    -13.03647765
     14.90666667	     -4.54041869	     -8.55821216	     -1.55943758	      2.15637960	      0.90326488	      0.97989838	     28.76850139	      8.11237442	    -14.63245386	     45.58410175	      0.79559266	     20.23318764	     -1.95208889	    -14.32552384	     -1.88993216	     71.72004643	      1.25175095	    -12.47808144
     14.91333333	     -4.90611360	     -8.30105295	     -1.28316411	      2.15486147	      0.90049452	      0.97997856	     28.74519137	      7.79176811	    -14.42198394	     46.81194136	      0.81702251	     21.81865329	      0.61039005	    -13.98338507	     -0.66781930	     74.46553122	      1.29966870	    -11.68719907
     14.92000000	     -4.89166550	     -8.02910879	     -1.14113923	      2.15340459	      0.89859137	      0.98023085	     28.12532500	      7.58249804	    -14.03318322	     47.72875436	      0.83302391	     23.36523281	      2.64839561	    -13.62058445	      0.20714232	     76.84825613	      1.34125509	    -10.85412130
     14.92666667	     -4.51320633	     -7.77033779	     -1.07175972	      2.15212335	      0.89762776	      0.98053257	     26.89993946	      7.45610201	    -13.58842319	     48.28397782	      0.84271439	     24.84071483	      4.18658674	    -13.28831974	      0.80767449	     78.86374558	      1.37643202	     -9.93898804
     14.93333333	     -4.90423662	     -7.32233778	     -0.68259221	      2.15055753	      0.89626980	      0.98038205	     26.44269062	      6.93609239	    -13.52528674	     48.71972880	      0.85031968	     26.02718100	      6.84122568	    -12.56859121	      1.96608045	     80.85133316	      1.41112197	     -9.09543219
     14.94000000	     -4.93811678	     -6.89802599	     -0.41635220	      2.14922159	      0.89585679	      0.98037227	     25.39247638	      6.53200408	    -13.36046372	     48.80118982	      0.85174144	     27.11115112	      8.95992920	    -11.92138530	      2.74857022	     82.44601200	      1.43895436	     -8.24401300
     14.94666667	     -4.73495948	     -6.48571200	     -0.37146357	      2.14817609	      0.89621659	      0.98054773	     23.92792881	      6.26454036	    -12.99292780	     48.59982504	      0.84822696	     28.02286368	     10.62411941	    -11.36400949	      3.08003860	     83.62962519	      1.45961231	     -7.27748296
     14.95333333	     -4.56700227	     -6.04485295	     -0.36716221	      2.14703234	      0.89708413	      0.98079474	     22.41477531	      6.02015554	    -12.50531612	     48.19194931	      0.84110819	     28.54265944	     12.32249742	    -10.77818358	      3.32144103	     84.55945667	      1.47584093	     -6.55017876
     14.96000000	     -4.60068880	     -5.54840102	     -0.21734282	      2.14628890	      0.89821105	      0.98067666	     20.95559396	      5.58062412	    -12.34531426	     47.53992906	      0.82972829	     29.08837104	     14.19946058	    -10.08048700	      3.59684436	     85.19062916	      1.48685697	     -5.62582471
     14.96666667	     -4.74787294	     -5.06971790	      0.20599685	      2.14544706	      0.89954392	      0.98023228	     19.57282278	      5.00164335	    -12.62601760	     46.79049700	      0.81664823	     29.25574010	     16.29282698	     -9.30492029	      4.10358435	     85.64560161	      1.49479774	     -4.87092063
     14.97333333	     -4.90709550	     -4.52483115	      0.03630634	      2.14503204	      0.90151711	      0.98050216	     18.09993139	      4.61021518	    -12.24846422	     45.81611322	      0.79964203	     29.22004814	     18.05963271	     -8.75795135	      3.73645356	     85.63517566	      1.49461577	     -4.17521472
